<?xml version="1.0" encoding="UTF-8" standalone="no"?>
<!-- Created with Inkscape (http://www.inkscape.org/) -->

<svg
   version="1.1"
   id="svg2"
   width="3496.6934"
   height="422.62668"
   viewBox="0 0 3496.6934 422.62668"
   sodipodi:docname="zerodha-seeklogo.eps"
   xmlns:inkscape="http://www.inkscape.org/namespaces/inkscape"
   xmlns:sodipodi="http://sodipodi.sourceforge.net/DTD/sodipodi-0.dtd"
   xmlns="http://www.w3.org/2000/svg"
   xmlns:svg="http://www.w3.org/2000/svg">
  <defs
     id="defs6" />
  <sodipodi:namedview
     id="namedview4"
     pagecolor="#ffffff"
     bordercolor="#000000"
     borderopacity="0.25"
     inkscape:showpageshadow="2"
     inkscape:pageopacity="0.0"
     inkscape:pagecheckerboard="0"
     inkscape:deskcolor="#d1d1d1" />
  <g
     id="g8"
     inkscape:groupmode="layer"
     inkscape:label="ink_ext_XXXXXX"
     transform="matrix(1.3333333,0,0,-1.3333333,0,422.62667)">
    <g
       id="g10"
       transform="scale(0.1)">
      <path
         d="m 2691.44,2399.13 c 193.52,-250.89 353.98,-532.74 478.32,-836.63 V 3169.75 H 1804.95 c 328.3,-177.38 629.08,-436.9 886.49,-770.62"
         style="fill:#3b8fd3;fill-opacity:1;fill-rule:nonzero;stroke:none"
         id="path12" />
      <path
         d="M 723.84,2998.51 C 470.984,2998.51 227.789,2944.46 0,2844.46 V 0 H 3030.26 C 3006.78,1658.9 1981.18,2998.51 723.84,2998.51"
         style="fill:#3b8fd3;fill-opacity:1;fill-rule:nonzero;stroke:none"
         id="path14" />
      <path
         d="M 4980.61,489.961 6673.74,2539.77 H 5033.81 v 446.87 H 7329.7 V 2613.61 L 5636.53,563.719 H 7329.7 V 116.891 H 4980.61 v 373.07"
         style="fill:#3b8fd3;fill-opacity:1;fill-rule:nonzero;stroke:none"
         id="path16" />
      <path
         d="M 7960.98,2986.64 H 10084.7 V 2531.61 H 8461.16 v -737.93 h 1439.1 V 1338.56 H 8461.16 V 572.012 H 10105.1 V 116.941 H 7960.98 V 2986.64"
         style="fill:#3b8fd3;fill-opacity:1;fill-rule:nonzero;stroke:none"
         id="path18" />
      <path
         d="m 11948.3,1564.11 c 180.8,0 324.8,43.1 431.7,129.63 106.9,86.49 160.4,203.85 160.4,352.07 v 8.19 c 0,156.46 -52.2,275.2 -156.4,356.21 -104.1,80.93 -250.8,121.43 -440,121.43 h -736.1 v -967.53 h 740.4 z m -1240.5,1422.53 h 1279.1 c 180.4,0 340.3,-25.29 479.7,-75.84 139.3,-50.56 255.5,-120.92 348.4,-211.13 76.5,-79.31 135.4,-170.84 176.4,-274.65 41,-103.9 61.4,-218.71 61.4,-344.37 v -8.23 c 0,-117.53 -17.1,-223.44 -51.2,-317.72 -34.2,-94.32 -81.4,-177.68 -141.5,-250.08 -60.1,-72.43 -131.8,-133.96 -215.2,-184.43 -83.4,-50.64 -175.6,-89.6 -276.7,-116.89 L 13143,116.891 h -594.5 l -707.3,1000.329 h -8.1 -625.2 V 116.891 h -500.2 V 2986.64 h 0.1"
         style="fill:#3b8fd3;fill-opacity:1;fill-rule:nonzero;stroke:none"
         id="path20" />
      <path
         d="m 15049.4,530.98 c 141.5,0 271.5,26.598 389.8,79.899 118.4,53.34 219.8,125.652 304.2,217.211 84.2,91.621 150.3,198.9 198,321.92 47.6,122.98 71.4,254.15 71.4,393.49 v 8.23 c 0,139.38 -23.8,271.24 -71.4,395.65 -47.7,124.34 -114.5,232.26 -200.1,323.83 -85.7,91.54 -188.5,164.65 -308.3,219.37 -119.7,54.64 -250.3,81.97 -391.9,81.97 -141.5,0 -271.4,-26.61 -389.7,-79.91 -118.5,-53.29 -219.8,-125.77 -304.2,-217.3 -84.4,-91.61 -150.4,-198.83 -198.1,-321.81 -47.6,-123.01 -71.4,-254.2 -71.4,-393.56 v -8.24 c 0,-139.36 23.8,-271.23 71.4,-395.55 47.7,-124.48 114.5,-232.399 200.2,-323.93 85.7,-91.609 188.4,-164.691 308.2,-219.309 119.8,-54.671 250.4,-81.961 391.9,-81.961 z m -8.2,-463.2612 c -221.4,0 -423.6,38.8832 -606.7,116.7612 -183.1,77.879 -340.3,183.79 -471.5,317.79 -131.2,133.89 -233.6,290.281 -307.4,469.351 -73.9,178.979 -110.8,369.669 -110.8,571.959 v 8.2 c 0,202.27 36.9,392.86 110.8,571.92 73.8,178.97 177.5,336.19 311.6,471.49 133.8,135.3 292.3,242.54 475.6,321.81 183,79.23 385.2,118.91 606.7,118.91 221.3,0 423.6,-38.94 606.7,-116.82 183.1,-77.89 340.3,-183.86 471.5,-317.76 131.1,-133.92 233.6,-290.4 307.4,-469.4 73.9,-179.03 110.8,-369.67 110.8,-571.87 v -8.24 c 0,-202.28 -36.9,-392.97 -110.8,-571.91 -73.8,-179.031 -177.6,-336.172 -311.5,-471.469 -134,-135.23 -292.5,-242.562 -475.6,-321.82 -183.2,-79.199 -385.4,-118.9022 -606.8,-118.9022"
         style="fill:#3b8fd3;fill-opacity:1;fill-rule:nonzero;stroke:none"
         id="path22" />
      <path
         d="m 18222.6,571.961 c 150.2,0 287,23.937 409.9,72.008 123,48.101 227.6,115.203 313.6,201.633 86.1,86.507 153,189.488 200.9,308.918 47.8,119.36 71.9,249.01 71.9,389.06 v 8.2 c 0,140 -24.1,270.31 -71.9,391.08 -47.9,120.78 -114.8,224.35 -200.9,310.8 -86,86.55 -190.6,154.42 -313.6,203.84 -122.9,49.41 -259.7,74.14 -409.9,74.14 h -565.9 V 572.012 h 565.9 z m -1066,2414.679 h 1070.1 c 224.1,0 429.7,-36.24 617,-108.67 187.3,-72.39 348.4,-172.85 483.7,-301.28 135.4,-128.48 239.8,-279.52 313.7,-453.09 73.8,-173.54 110.7,-361.47 110.7,-563.71 v -8.2 c 0,-202.32 -36.9,-390.88 -110.7,-565.729 -73.9,-174.859 -178.3,-326.68 -313.7,-455.082 -135.3,-128.547 -296.4,-229.598 -483.7,-303.367 -187.3,-73.801 -392.9,-110.672 -617,-110.672 h -1070.1 v 2869.8"
         style="fill:#3b8fd3;fill-opacity:1;fill-rule:nonzero;stroke:none"
         id="path24" />
      <path
         d="m 20362.6,2986.64 h 500.2 V 1793.63 h 1377.6 v 1193.01 h 500.2 V 116.84 h -500.2 V 1326.28 H 20862.8 V 116.891 h -500.2 V 2986.64"
         style="fill:#3b8fd3;fill-opacity:1;fill-rule:nonzero;stroke:none"
         id="path26" />
      <path
         d="m 25216.7,1256.51 -496.1,1147.97 -492,-1147.97 z m -721.6,1750.66 h 467.4 L 26225.2,116.891 h -532.9 l -291.2,692.828 h -1357 l -295.2,-692.828 h -516.6 l 1262.8,2890.279"
         style="fill:#3b8fd3;fill-opacity:1;fill-rule:nonzero;stroke:none"
         id="path28" />
    </g>
  </g>
</svg>
